<svg xmlns="http://www.w3.org/2000/svg" width="48" height="48" viewBox="0 0 48 48">
  <g id="CROWN" opacity="0.9">
    <path id="Path_1763" data-name="Path 1763" d="M16.834,17.466a.376.376,0,0,1,.058,0v.01A.558.558,0,0,0,17,17.5a.456.456,0,0,0,.062-.013l.048-.014c.007,0,.015,0,.022,0A.494.494,0,0,0,17,16.5a.5.5,0,1,0-.166.966ZM19.3,22.125l-2.235-3.573-2.14,4.669,2.453,2.452ZM11.5,20a.5.5,0,0,0,0,1,.492.492,0,0,0,.085-.017c.011,0,.02-.012.031-.015a.521.521,0,0,0,.235-.113A.5.5,0,0,0,11.5,20Zm19.332-2.534c.01,0,.02,0,.031,0A.88.88,0,0,0,31,17.5c.01,0,.1-.03.108-.031a.578.578,0,0,1,.058,0,.762.762,0,1,0-.334,0Zm2.24,5.754-2.14-4.668L28.7,22.125l1.922,3.548Z" fill="#ffcf07"/>
    <circle id="Ellipse_39" data-name="Ellipse 39" cx="1" cy="1" r="1" transform="translate(23 13)" fill="#ffcf07"/>
    <path id="Path_1764" data-name="Path 1764" d="M30.672,26.966a.438.438,0,0,1-.063.012A.449.449,0,0,1,30.5,27a.5.5,0,0,1-.44-.262l-2.38-4.392v0l-3.445-6.36c-.027,0-.054,0-.08,0-.052,0-.1.016-.155.016s-.1-.012-.154-.016c-.027,0-.054,0-.081,0l-3.445,6.36v0l-2.38,4.392A.5.5,0,0,1,17.5,27a.473.473,0,0,1-.112-.022c-.02,0-.04,0-.06-.012a.5.5,0,0,1-.182-.112L12.423,22.13,14.89,32H33.108l2.468-9.87-4.723,4.724a.5.5,0,0,1-.182.112ZM24,30a2.5,2.5,0,1,1,2.5-2.5A2.5,2.5,0,0,1,24,30Z" fill="#ffcf07"/>
    <path id="Path_1765" data-name="Path 1765" d="M24,0A24,24,0,1,0,48,24,24,24,0,0,0,24,0ZM36.644,21.985,34.021,32.48l.954,2.862A.5.5,0,0,1,34.5,36h-21a.5.5,0,0,1-.475-.658l.954-2.862L11.356,21.985a1.5,1.5,0,1,1,1.494-.842l1.324,1.324,1.95-4.255a1.5,1.5,0,1,1,1.856-.086l1.869,2.989,2.98-5.5a2,2,0,1,1,2.343,0l2.98,5.5,1.868-2.989a1.5,1.5,0,1,1,1.856.086l1.95,4.255,1.324-1.324A1.483,1.483,0,0,1,35,20.5a1.5,1.5,0,1,1,1.644,1.485Z" fill="#ffcf07"/>
    <path id="Path_1766" data-name="Path 1766" d="M36.5,20a.5.5,0,0,0-.351.855.521.521,0,0,0,.235.113.3.3,0,0,1,.031.015A.492.492,0,0,0,36.5,21a.5.5,0,0,0,0-1Z" fill="#ffcf07"/>
    <circle id="Ellipse_40" data-name="Ellipse 40" cx="1.5" cy="1.5" r="1.5" transform="translate(22.5 26)" fill="#ffcf07"/>
    <path id="Path_1767" data-name="Path 1767" d="M14.86,33l-.667,2H33.807l-.667-2Z" fill="#121212"/>
  </g>
</svg>
